PathFileType	4	(X/Y/Z)	OpenSim_Sub10_EMGStiffKnee_Gyro.trc
DataRate	CameraRate	NumFrames	NumMarkers	Units	OrigDataRate	OrigDataStartFrame	OrigNumFrames
100	100	37	8	m	100	1047	8371
Frame#	Time	torso_imu_offset_imu	pelvis_imu_offset_imu	tibia_r_imu_offset_imu	femur_r_imu_offset_imu	tibia_l_imu_offset_imu	femur_l_imu_offset_imu	toes_r_imu_offset_imu	toes_l_imu_offset_imu
				X1	Y1	Z1	X2	Y2	Z2	X3	Y3	Z3	X4	Y4	Z4	X5	Y5	Z5	X6	Y6	Z6	X7	Y7	Z7	X8		Y8	Z8	

1047	10.46000000	0.45958500	-0.22727700	0.17282800	0.60623600	0.42029400	0.13000500	0.17856000	-0.08589200	-0.48465900	0.03076100	0.14892600	-0.88850900	0.45848700	-0.09065500	-3.14593600	0.27238300	0.26862200	-0.93730400	-0.00914900	-0.00933700	-0.00941100	1.07895300	3.09890400	0.30823800
1048	10.47000000	0.43451600	-0.19133400	0.19802300	0.58774500	0.42052100	0.11630800	0.13293000	-0.08793600	-0.52221300	0.31178200	0.14254900	-0.89839200	0.18741500	-0.09000900	-3.27873400	0.21528900	0.35335900	-0.98631700	0.05210100	-0.01140800	-0.00880500	0.91957200	2.97228900	0.09127500
1049	10.48000000	0.44151300	-0.16534700	0.23473200	0.58007900	0.40927500	0.10827300	0.06960100	-0.06035700	-0.52168800	0.56048000	0.09600200	-0.91641300	0.07457800	-0.08080700	-3.42674700	0.13463000	0.43696900	-0.97552500	-0.00646000	-0.02717200	-0.00848600	0.80471400	2.92350800	-0.21242100
1050	10.49000000	0.44619300	-0.18291000	0.25563700	0.58794900	0.39015400	0.10189800	0.02400400	-0.04851900	-0.51176000	0.74415300	0.02171300	-0.93745500	-0.01879300	-0.01680300	-3.57068700	0.09363800	0.47944400	-0.92111900	0.02990300	-0.01352900	-0.01362200	0.90026200	2.95156500	-0.57486900
1051	10.50000000	0.45853700	-0.20861600	0.25819500	0.58617000	0.36130300	0.09975400	-0.00302500	-0.05304900	-0.51000200	0.85725200	-0.03576500	-0.96359000	-0.02938700	0.02711200	-3.65404900	0.10725200	0.46329700	-0.86199000	-0.01073700	-0.02043900	-0.02437400	0.94585800	3.01438600	-0.92750800
1052	10.51000000	0.47458500	-0.22650100	0.26719300	0.57934700	0.31671400	0.10961200	-0.02215800	-0.05626600	-0.52748900	0.91364000	-0.04290800	-0.99794800	0.04717100	0.03531000	-3.65745900	0.13958200	0.43259200	-0.80536600	0.02950900	-0.02052600	-0.04547100	0.81987200	3.05670400	-1.23248300
1053	10.52000000	0.50423700	-0.23863500	0.27808300	0.55155500	0.26204400	0.11457300	-0.06766200	-0.05813700	-0.52339900	0.91992600	-0.02007700	-1.02994900	0.07186700	0.04449500	-3.63453400	0.18464700	0.38036900	-0.73419500	0.06066100	-0.00819900	-0.07101900	0.56661200	3.04459800	-1.51785900
1054	10.53000000	0.51916500	-0.25476700	0.29477200	0.51777900	0.22314000	0.11879800	-0.10045500	-0.04745300	-0.49123300	0.89760600	-0.01096500	-1.05556000	-0.00175200	0.07365000	-3.63351700	0.21576500	0.31063900	-0.68771400	0.05683200	-0.00475700	-0.09042700	0.37449600	2.96148000	-1.77608300
1055	10.54000000	0.53037900	-0.26422100	0.30024700	0.47221600	0.21753000	0.11609900	-0.09961000	-0.04907200	-0.46933100	0.85009900	-0.00569900	-1.04792500	-0.17988100	0.14147500	-3.67086700	0.24079200	0.25703500	-0.64012700	0.05950300	0.00277100	-0.10704500	0.23459600	2.81988600	-1.97727100
1056	10.55000000	0.51755500	-0.28293400	0.29601100	0.43766300	0.21841300	0.09732300	-0.09929500	-0.04067500	-0.48178200	0.77610100	-0.00420300	-1.02420400	-0.49399500	0.24887000	-3.72834200	0.24657200	0.21873400	-0.57018100	0.09499500	0.02808900	-0.11116100	0.19620300	2.68955900	-2.11544200
1057	10.56000000	0.53465200	-0.28167300	0.28113900	0.41096400	0.22147800	0.06994100	-0.09889700	-0.00954900	-0.49529500	0.67748100	0.00107600	-1.01104100	-0.87508400	0.37150500	-3.76426300	0.18281100	0.19406000	-0.51651500	0.10545700	0.03249700	-0.11486500	0.24511300	2.63783300	-2.16832900
1058	10.57000000	0.50738100	-0.27054300	0.25385300	0.38788100	0.23843900	0.04191100	-0.07647500	0.02677500	-0.49603000	0.55168300	-0.00485500	-1.00992900	-1.12113700	0.47929800	-3.73626300	0.10518700	0.17552400	-0.48200500	0.09266300	0.02161100	-0.12189500	0.29624600	2.59490000	-2.14261300
1059	10.58000000	0.48397100	-0.24820200	0.23628600	0.35848900	0.25692100	0.00711300	-0.09206400	0.02294000	-0.52309500	0.43368200	-0.02513400	-0.99526800	-1.23379600	0.54930800	-3.65450200	-0.12200200	0.18960600	-0.43521000	0.08797800	0.03380600	-0.13832600	0.35467800	2.51702400	-2.06649700
1060	10.59000000	0.45214900	-0.20916100	0.21806300	0.32251900	0.26645600	-0.02055700	-0.10511600	0.03276800	-0.55523100	0.29589800	-0.03587700	-0.98410400	-1.21971800	0.59843200	-3.54134500	-0.30442300	0.18984400	-0.42015500	0.09582100	0.03515400	-0.17186100	0.29514900	2.41553000	-1.96094000
1061	10.60000000	0.41481300	-0.18424200	0.19832200	0.28242200	0.24836700	-0.04547700	-0.11249400	0.05351000	-0.58573400	0.14475500	-0.03192200	-0.95293500	-1.04725600	0.62836800	-3.42623300	-0.38250500	0.19071900	-0.40823600	0.12115100	0.04945900	-0.19514100	0.14447300	2.31114200	-1.83586700
1062	10.61000000	0.39223600	-0.16179800	0.17378400	0.23577100	0.22313400	-0.05103600	-0.07451900	0.07505800	-0.60923600	0.02571300	-0.01342500	-0.88592900	-0.78966100	0.66200100	-3.28951500	-0.39068200	0.20010200	-0.39120600	0.11723900	0.03878200	-0.20478600	0.09301800	2.22749600	-1.68561600
1063	10.62000000	0.37286500	-0.14290500	0.14901100	0.17441100	0.18609300	-0.04383800	-0.04275800	0.04041300	-0.64649100	-0.05026700	-0.00068300	-0.79952600	-0.46550300	0.64586500	-3.10056900	-0.36896200	0.20844300	-0.37364200	0.09634000	0.01815000	-0.23344100	-0.15856800	2.18584100	-1.48837900
1064	10.63000000	0.35328300	-0.13841400	0.12603700	0.09885200	0.15252900	-0.02020000	-0.06905500	0.05472200	-0.69910300	-0.08538900	-0.00950400	-0.72718200	-0.21441100	0.58369900	-2.88666300	-0.35781900	0.19801200	-0.35490600	0.13659200	-0.01247500	-0.25556100	-0.33028700	2.15946800	-1.28167200
1065	10.64000000	0.32863400	-0.13309000	0.10466500	0.02662100	0.12539400	-0.00156500	-0.09141600	0.09268000	-0.75489800	-0.13467200	-0.00299500	-0.66300800	-0.11198800	0.52991600	-2.67040800	-0.34534400	0.15110100	-0.31752300	0.09512100	-0.04687000	-0.27759600	-0.21546500	2.10255600	-1.09378700
1066	10.65000000	0.30498000	-0.13798500	0.07628300	-0.03648800	0.08848300	0.02291900	-0.13893700	0.06499600	-0.78741800	-0.18743000	0.04025900	-0.59337300	-0.15387800	0.46993700	-2.41986500	-0.34005100	0.08523000	-0.24416000	0.16667600	-0.03585900	-0.26946100	0.07770500	1.95323600	-0.87914000
1067	10.66000000	0.27165700	-0.15605000	0.03453300	-0.08922200	0.03145500	0.02761400	-0.19245700	0.11217200	-0.81089200	-0.23798800	0.11497000	-0.52946500	-0.18822600	0.33202700	-2.12094000	-0.34503600	0.02276800	-0.18134000	0.16581500	-0.08478500	-0.24029100	0.30525600	1.71217700	-0.65164400
1068	10.67000000	0.21541400	-0.17245700	-0.01841300	-0.12147500	-0.02893900	0.02848200	-0.24175400	0.15311800	-0.88672400	-0.27245700	0.15418600	-0.51885900	-0.16499300	0.18153900	-1.80511600	-0.37088700	-0.03054900	-0.12768500	0.08033800	-0.13708000	-0.21596500	0.33131900	1.47392700	-0.44156600
1069	10.68000000	0.16641100	-0.18242900	-0.06474300	-0.15836600	-0.08663900	0.02698900	-0.27310900	0.12427000	-0.99154600	-0.26938200	0.14581900	-0.51064600	-0.16082400	0.15346600	-1.48404600	-0.43710500	-0.04228200	-0.10056500	0.07133900	-0.20221800	-0.22225700	0.19313400	1.24749700	-0.31468900
1070	10.69000000	0.13712800	-0.17965900	-0.09818500	-0.17627300	-0.14592700	0.01641600	-0.32339600	0.12529700	-1.04903900	-0.25291500	0.10906000	-0.52564200	-0.19774400	0.13587200	-1.13588200	-0.44067400	-0.04193900	-0.17644000	0.03859100	-0.27404000	-0.25480000	0.10771100	0.99665200	-0.27639900
1071	10.70000000	0.10408300	-0.15843900	-0.11488300	-0.20486200	-0.19505800	0.01252600	-0.34468700	0.13700500	-1.06154000	-0.24840600	0.08170600	-0.53704800	-0.15998800	-0.00647700	-0.76659000	-0.40965900	-0.04936800	-0.30860300	0.02645500	-0.35372000	-0.30223500	-0.06711000	0.77567600	-0.26845500
1072	10.71000000	0.06921100	-0.12210500	-0.13548300	-0.25098500	-0.24922200	0.00527700	-0.42753800	0.10135400	-1.07007400	-0.26815300	0.09898500	-0.52969400	-0.15032400	-0.15006700	-0.38557600	-0.36498400	-0.07126800	-0.43608500	0.05768900	-0.38903900	-0.32269700	-0.16659800	0.43384700	-0.22760000
1073	10.72000000	0.01911000	-0.07976500	-0.15459900	-0.28490100	-0.31864700	-0.00417000	-0.58144000	0.12656800	-1.11067000	-0.31323600	0.10602300	-0.50732400	-0.25251600	-0.19109700	-0.02320300	-0.39154200	-0.13034300	-0.53782400	-0.01227700	-0.44047700	-0.32390300	-0.05612500	-0.06195600	-0.13345400
1074	10.73000000	-0.02424400	-0.04866500	-0.17205800	-0.32326000	-0.38431500	-0.00040500	-0.66189600	0.14376800	-1.21333700	-0.37403800	0.09947100	-0.46120900	-0.46195000	-0.22787400	0.28898100	-0.43573500	-0.21782400	-0.61759400	-0.07195800	-0.52948500	-0.36372300	-0.09494900	-0.55343000	-0.06898700
1075	10.74000000	-0.07871900	0.00340800	-0.20590500	-0.39599800	-0.44157900	-0.00502600	-0.63252100	0.14768600	-1.30911900	-0.42376800	0.07227300	-0.40514000	-0.67098400	-0.31729700	0.54458300	-0.44797600	-0.29838300	-0.66492900	0.05278000	-0.57827500	-0.42979500	0.03561600	-0.96747800	-0.12940300
1076	10.75000000	-0.14069600	0.05902000	-0.22565400	-0.47650400	-0.50221400	-0.00544300	-0.64337300	0.15352400	-1.38569100	-0.46023300	0.05407800	-0.33736800	-0.90495000	-0.37811900	0.82738300	-0.36418500	-0.39715600	-0.68646700	0.11119700	-0.65630700	-0.46372500	-0.08005700	-1.09914000	-0.31414400
1077	10.76000000	-0.17495400	0.14437200	-0.24313900	-0.57879700	-0.56282300	-0.00237500	-0.71491800	0.15934400	-1.48269300	-0.52080100	0.05210600	-0.25533600	-1.12009200	-0.41191800	1.14164500	-0.23603200	-0.47805900	-0.65465900	0.21086800	-0.74695900	-0.41041900	-0.31526700	-1.22347200	-0.54648100
1078	10.77000000	-0.21541600	0.23186800	-0.25272400	-0.69941100	-0.61437000	-0.00284700	-0.71652500	0.19410400	-1.62312600	-0.63626800	0.07237200	-0.15029300	-1.24546400	-0.50078600	1.41468100	-0.12116600	-0.54197000	-0.56279200	0.04007400	-0.87577200	-0.27598500	-0.67255000	-2.14045300	-0.73030300
1079	10.78000000	-0.28031400	0.29622100	-0.27153100	-0.82332000	-0.63178200	-0.00553300	-0.66500700	0.23888900	-1.76148600	-0.75231500	0.10275500	-0.04417100	-1.55457700	-0.77592400	1.54280700	-0.08914300	-0.64370900	-0.39525100	-0.23595200	-1.09615100	-0.20848500	1.43887000	-3.60564300	-1.25994500
1080	10.79000000	-0.30336900	0.34883100	-0.27533100	-0.84795900	-0.64923400	-0.02090900	-0.63897700	0.26687800	-1.88126400	-0.85287200	0.11960500	0.05339200	-1.62102100	-1.21599300	1.53154700	-0.12389900	-0.77388200	-0.14644000	0.02696900	-1.28151200	-0.14178200	-0.82923000	-3.80763800	-0.55876600
1081	10.80000000	-0.32398200	0.30540900	-0.31587800	-0.78214400	-0.61259000	-0.06765900	-0.59962700	0.28215800	-2.01399000	-0.88134700	0.12047700	0.17365800	-1.66894000	-1.39145400	1.38713500	-0.25865500	-0.88515400	0.17183900	-0.15617000	-1.61494500	-0.05358600	-0.61945800	-3.70509900	0.33627600
1082	10.81000000	-0.37264200	0.20282200	-0.37043900	-0.56155900	-0.54393900	-0.15950000	-0.59610500	0.27253000	-2.18415900	-0.86494200	0.12417500	0.31747400	-0.89293100	-1.63767800	1.03408200	-0.36112700	-1.09518700	0.61299200	-0.11947500	-1.97459600	-0.01093000	0.36910300	-3.43681800	0.70438700
1083	10.82000000	-0.37034900	0.09152700	-0.42891300	-0.14118900	-0.47180500	-0.26944100	-0.55412000	0.23960100	-2.38478900	-0.77688300	0.10829800	0.50780900	-0.47740600	-1.27630800	0.94563700	-0.52237100	-1.17939700	1.02984000	-0.08913800	-2.42464300	-0.06574100	0.45931800	-2.92423500	0.81577100
